<?xml version="1.0" standalone="no"?>
<!DOCTYPE svg PUBLIC "-//W3C//DTD SVG 20010904//EN"
 "http://www.w3.org/TR/2001/REC-SVG-20010904/DTD/svg10.dtd">
<svg version="1.0" xmlns="http://www.w3.org/2000/svg"
 width="4128.000000pt" height="1024.000000pt" viewBox="0 0 4128.000000 1024.000000"
 preserveAspectRatio="xMidYMid meet">

<g transform="translate(0.000000,1024.000000) scale(0.100000,-0.100000)"
fill="#000000" stroke="none">
<path d="M4890 7014 c-625 -376 -1194 -720 -1223 -740 -17 -11 -1 -23 145
-109 89 -53 173 -104 186 -112 23 -14 -5 -32 -789 -503 -447 -269 -817 -494
-822 -499 -5 -5 18 -24 60 -49 59 -35 505 -293 691 -400 34 -20 62 -39 62 -42
0 -3 -147 -92 -325 -199 -179 -106 -329 -199 -335 -206 -8 -10 42 -43 207
-141 120 -70 475 -280 788 -467 314 -186 644 -382 733 -435 90 -53 398 -237
685 -407 l522 -311 3 281 3 280 292 178 c161 97 582 356 937 575 l645 398 3
1025 2 1025 -32 19 c-38 22 -756 480 -1264 807 -345 222 -591 378 -596 378 -2
0 -262 -156 -578 -346z m556 -540 c-2 -6 -102 -68 -223 -139 -120 -71 -342
-201 -493 -290 -151 -89 -285 -167 -297 -174 -19 -10 -57 10 -330 171 -169
100 -320 188 -335 197 -16 9 -26 20 -25 25 3 10 304 194 1157 707 l545 328 3
-407 c1 -224 0 -412 -2 -418z m294 668 c91 -58 271 -173 400 -257 129 -84 363
-234 520 -335 157 -100 369 -236 473 -303 l187 -121 0 -979 c0 -822 -2 -978
-14 -975 -7 2 -184 104 -393 228 l-381 225 5 615 5 615 -43 23 c-24 12 -260
150 -524 306 l-480 284 -3 416 -2 416 42 -26 c24 -15 117 -75 208 -132z m75
-913 c187 -110 411 -242 497 -292 86 -51 157 -95 158 -98 0 -3 -19 -16 -42
-29 -24 -13 -248 -145 -498 -294 -250 -148 -459 -269 -465 -269 -8 0 -435 250
-958 560 l-48 29 503 296 c277 163 505 297 508 297 3 1 159 -89 345 -200z
m-1585 -311 l160 -93 0 -275 0 -275 -569 -342 c-312 -189 -571 -343 -573 -343
-3 0 -158 88 -344 196 -186 108 -363 210 -392 226 -29 17 -50 34 -45 39 4 4
316 193 693 420 377 227 732 441 790 476 58 34 108 63 113 63 4 0 79 -42 167
-92z m2265 -705 c-4 -324 -10 -591 -14 -595 -7 -7 -982 -588 -987 -588 -2 0
-4 265 -4 588 l0 588 286 170 c157 93 381 226 497 296 117 69 216 126 221 127
4 1 5 -263 1 -586z m-1952 524 c85 -50 482 -284 777 -459 l125 -74 3 -588 c2
-532 1 -588 -14 -582 -8 3 -236 137 -505 298 l-489 292 0 275 c0 152 -1 389
-1 526 -1 309 0 365 7 365 3 0 46 -24 97 -53z m-153 -815 l0 -299 -295 -176
-296 -176 -249 142 c-137 78 -248 146 -247 150 3 9 1066 655 1080 656 4 1 7
-133 7 -297z m568 -657 l482 -288 0 -330 0 -329 -37 22 c-21 12 -168 98 -328
190 -159 93 -499 290 -755 438 -255 148 -465 273 -467 278 -2 5 34 30 80 56
45 26 172 101 282 167 l200 119 30 -17 c17 -10 247 -147 513 -306z m1949 89
c211 -125 383 -230 383 -233 0 -3 -19 -18 -42 -32 -24 -14 -360 -222 -748
-461 -942 -580 -1010 -621 -1017 -615 -3 3 -2 222 2 485 l8 480 505 301 c279
166 511 301 516 301 5 0 182 -102 393 -226z m-3564 130 c140 -79 1510 -873
2005 -1161 l92 -54 0 -399 c0 -220 -2 -400 -5 -400 -5 0 -654 384 -1250 740
-229 137 -1248 741 -1462 868 -62 37 -113 69 -113 72 1 8 624 380 638 380 7 0
50 -21 95 -46z"/>
<path d="M13495 6160 c-309 -48 -586 -253 -730 -540 -90 -179 -121 -336 -112
-561 11 -288 99 -498 287 -690 137 -140 266 -218 455 -275 84 -26 103 -28 280
-28 177 -1 196 1 287 26 368 103 636 376 727 739 62 247 44 491 -54 732 -113
277 -365 496 -660 573 -83 22 -127 27 -260 30 -88 1 -187 -1 -220 -6z m396
-249 c265 -68 470 -287 541 -576 32 -132 30 -323 -5 -457 -72 -274 -250 -465
-512 -548 -99 -31 -293 -39 -401 -16 -271 59 -488 270 -564 549 -119 435 72
869 449 1022 139 57 334 67 492 26z"/>
<path d="M33085 6150 c-130 -28 -258 -94 -337 -173 -103 -103 -148 -215 -148
-367 0 -154 45 -265 143 -357 101 -94 218 -147 520 -234 354 -102 457 -179
474 -352 11 -122 -39 -230 -137 -295 -91 -61 -160 -77 -330 -76 -129 0 -154 3
-225 27 -111 37 -196 89 -288 178 l-78 76 -80 -85 c-43 -47 -79 -90 -79 -96 0
-22 149 -152 226 -197 143 -84 260 -121 444 -139 249 -26 489 44 639 185 115
109 171 243 171 410 0 251 -120 411 -389 520 -33 14 -154 52 -267 85 -233 68
-331 110 -394 166 -114 103 -121 274 -15 392 78 86 183 122 359 122 180 0 318
-50 432 -156 33 -30 62 -50 67 -45 5 5 39 46 77 92 l68 84 -21 23 c-36 39
-138 112 -199 143 -116 59 -218 81 -388 85 -127 3 -171 0 -245 -16z"/>
<path d="M35900 6155 c-309 -58 -576 -257 -714 -532 -153 -306 -153 -710 0
-1016 51 -100 87 -151 168 -235 94 -98 183 -162 299 -217 460 -218 1030 -67
1306 345 208 311 238 746 77 1096 -124 267 -366 466 -664 546 -101 27 -362 34
-472 13z m320 -225 c331 -53 569 -288 636 -628 17 -87 19 -288 3 -364 -79
-394 -370 -640 -753 -639 -129 0 -230 21 -331 70 -279 133 -437 404 -436 751
0 246 78 448 230 601 168 167 413 246 651 209z"/>
<path d="M9125 5883 c-59 -142 -162 -386 -228 -543 -65 -157 -209 -498 -318
-758 -109 -260 -199 -478 -199 -483 0 -6 54 -8 137 -7 l137 3 112 275 113 275
212 3 c195 2 211 4 206 20 -2 9 -17 61 -33 115 l-28 97 -129 0 c-103 0 -128 3
-125 13 7 29 353 887 358 887 3 0 18 -35 34 -78 44 -117 367 -915 519 -1282
l135 -325 141 -3 141 -3 -9 23 c-5 13 -85 205 -179 428 -238 566 -637 1517
-656 1563 l-15 37 -108 0 -109 0 -109 -257z"/>
<path d="M10590 5115 l0 -1025 130 0 130 0 0 775 c0 426 3 775 8 774 4 0 201
-248 437 -551 237 -303 508 -652 604 -775 l175 -223 98 0 98 0 0 1025 0 1025
-130 0 -130 0 -2 -777 -3 -777 -455 579 c-251 319 -525 669 -610 778 l-154
197 -98 0 -98 0 0 -1025z"/>
<path d="M14820 6025 l0 -115 320 0 320 0 0 -910 0 -910 130 0 130 0 0 910 0
910 320 0 320 0 0 115 0 115 -770 0 -770 0 0 -115z"/>
<path d="M16652 5118 l3 -1023 128 -3 127 -3 0 471 0 470 530 0 530 0 0 -470
0 -470 130 0 130 0 0 1025 0 1025 -130 0 -130 0 0 -440 0 -440 -530 0 -530 0
0 440 0 440 -130 0 -130 0 2 -1022z"/>
<path d="M18747 6133 c-4 -3 -7 -465 -7 -1025 l0 -1018 665 0 665 0 0 115 0
115 -532 2 -533 3 0 350 0 350 438 3 437 2 0 110 0 110 -440 0 -440 0 0 330 0
330 525 0 525 0 0 115 0 115 -648 0 c-357 0 -652 -3 -655 -7z"/>
<path d="M20452 5118 l3 -1023 126 -3 126 -3 6 233 c4 128 7 313 7 411 l0 177
223 0 224 0 162 -262 c89 -145 203 -328 254 -408 l93 -145 147 -3 c81 -1 147
0 147 4 0 9 -12 28 -279 449 -129 204 -236 377 -238 385 -3 11 14 20 58 34 82
25 200 105 251 170 158 199 181 495 53 711 -50 85 -143 169 -240 215 -148 72
-156 73 -668 77 l-457 4 2 -1023z m880 781 c121 -26 224 -104 271 -207 19 -40
22 -65 22 -162 0 -106 -2 -120 -29 -178 -37 -79 -114 -152 -192 -181 -87 -33
-170 -41 -436 -41 l-248 0 0 390 0 390 280 0 c167 0 300 -4 332 -11z"/>
<path d="M23212 5118 l3 -1023 320 -3 c519 -5 695 17 876 107 204 102 338 239
433 442 68 144 87 234 93 434 6 194 -7 294 -56 440 -47 138 -103 227 -211 336
-129 130 -255 202 -440 249 -128 33 -241 40 -638 40 l-382 0 2 -1022z m874
777 c389 -68 619 -395 590 -842 -24 -381 -230 -633 -579 -710 -55 -12 -136
-16 -347 -17 l-275 -1 -3 793 -2 792 264 0 c192 0 287 -4 352 -15z"/>
<path d="M25352 5118 l3 -1023 128 -3 127 -3 0 1026 0 1025 -130 0 -130 0 2
-1022z"/>
<path d="M26132 5118 l3 -1023 125 0 125 0 5 738 5 738 344 -595 345 -596 95
0 96 0 290 507 c160 278 313 546 340 594 28 49 53 89 58 89 4 0 7 -333 7 -740
l0 -740 125 0 125 0 0 1025 0 1025 -99 0 -99 0 -110 -187 c-60 -104 -248 -427
-418 -720 -231 -397 -312 -529 -320 -520 -6 7 -154 257 -329 557 -175 300
-361 618 -414 708 l-95 162 -103 0 -103 0 2 -1022z"/>
<path d="M28740 5115 l0 -1025 670 0 670 0 0 115 0 115 -542 2 -543 3 0 350 0
350 443 3 442 2 0 110 0 110 -442 2 -443 3 1 70 c0 39 1 186 2 328 l2 257 520
0 520 0 0 115 0 115 -650 0 -650 0 0 -1025z"/>
<path d="M30459 6136 c-2 -2 1 -292 8 -643 6 -351 12 -810 12 -1021 l1 -383
128 3 127 3 -3 690 c-1 380 -5 725 -8 768 -4 42 -2 77 2 77 10 -1 373 -459
877 -1106 l339 -434 99 0 99 0 0 1025 0 1025 -130 0 -130 0 -2 -777 -3 -777
-70 89 c-38 49 -160 202 -270 340 -109 137 -302 383 -429 545 -126 162 -281
359 -344 438 l-113 142 -93 0 c-51 0 -95 -2 -97 -4z"/>
<path d="M34410 5115 l0 -1025 130 0 130 0 0 1025 0 1025 -130 0 -130 0 0
-1025z"/>
<path d="M37520 5115 l0 -1025 130 0 130 0 2 778 3 779 121 -152 c67 -83 248
-313 404 -510 155 -198 377 -480 493 -627 l211 -268 98 0 98 0 0 1025 0 1025
-130 0 -130 0 0 -777 0 -778 -23 25 c-30 32 -365 454 -721 910 -153 195 -325
415 -382 488 l-105 132 -99 0 -100 0 0 -1025z"/>
</g>
</svg>
